<svg width="500" height="500" viewBox="0 0 250.00000000000003 256.634073439954" class="looka-1j8o68f">
    <g id="SvgjsG2572" featurekey="symbolFeature-0" transform="matrix(2.0623022270620366,0,0,2.0623022270620366,21.232173785922072,-42.67728279031354)" fill="#A9CCE3">
        <path xmlns="http://www.w3.org/2000/svg" fill="#A9CCE3" d="M81.288,47.982c0-0.001,0-0.002,0.001-0.002c0.021-0.187,0.034-0.375,0.046-0.564c0-0.004,0-0.009,0-0.013  c0.011-0.194,0.017-0.39,0.017-0.586c0-6.113-5.078-11.068-11.342-11.068c-6.263,0-11.342,4.955-11.342,11.068  c0,0.161,0.005,0.321,0.012,0.479c0.006,0.069,0.01,0.137,0.014,0.206c0.005,0.076,0.011,0.152,0.019,0.229  c0.017,0.199,0.037,0.396,0.063,0.591c0.002,0.005,0.002,0.009,0.002,0.013c-0.15-0.775-0.229-1.578-0.229-2.4  c0-5.579,3.649-10.265,8.58-11.581c-1.676-7.807-8.612-13.66-16.92-13.66c-8.749,0-15.977,6.489-17.144,14.916  c-1.459-0.632-3.067-0.984-4.759-0.984c-6.262,0-11.398,4.806-11.929,10.93c3.486-0.817,7.415-1.278,11.569-1.278  c13.179,0,24.073,4.626,25.84,10.638c-3.215-4.57-13.391-7.908-25.449-7.908C13.697,47.008,1.827,51.93,1.827,58  s11.87,10.994,26.509,10.994c9.019,0,16.983-1.869,21.772-4.723c3.309-0.056,6.352-0.459,8.832-1.109  c4.051,0.877,8.896,1.387,14.102,1.387c14.23,0,25.764-3.809,25.764-8.506C98.805,52.295,91.471,49.117,81.288,47.982z">
        </path>
    </g>
    <g id="SvgjsG2573" featurekey="nameFeature-0" transform="matrix(1.5045740096777978,0,0,1.5045740096777978,-0.24072551375591503,103.57004596003421)" fill="#2C3E50">
        <path d="M26.32 32 l0 -3.64 c0 -3.56 -0.04 -5.52 -0.12 -7.52 c-0.04 -1.56 -0.24 -5.48 -0.36 -6.08 c-0.24 -1 -1.2 -1.56 -2.12 -1.56 l-1.28 0 c-0.2 0 -0.24 -0.12 -0.24 -0.36 l0 -1 c0 -0.2 0.04 -0.28 0.36 -0.28 c0.44 0 1.72 0.12 4.68 0.12 c2.4 0 3.36 -0.12 3.8 -0.12 c0.36 0 0.4 0.08 0.4 0.32 l0 0.96 c0 0.2 -0.04 0.36 -0.2 0.36 l-1.12 0 c-0.68 0 -1.08 0.68 -1.2 2.12 c-0.28 2.68 -0.92 11.72 -0.92 17 l0 6.84 c0 0.6 -0.04 1.32 -0.6 1.32 c-0.6 0 -1.12 -0.2 -1.56 -0.64 c-0.68 -0.64 -2.64 -2.76 -5.04 -5.6 c-2.88 -3.4 -6.08 -7.24 -6.84 -8.12 c-0.68 -0.8 -6.2 -7.68 -7.12 -9 l-0.32 0 l0 8.08 c0 3.32 0.36 8.24 0.4 9.76 c0.08 2.32 0.8 3.52 2.48 3.52 l1 0 c0.28 0 0.32 0.12 0.32 0.36 l0 0.96 c0 0.24 -0.04 0.32 -0.32 0.32 c-0.4 0 -2.8 -0.12 -4.68 -0.12 c-1.24 0 -4 0.12 -4.4 0.12 c-0.16 0 -0.2 -0.08 -0.2 -0.36 l0 -1.04 c0 -0.12 0.04 -0.24 0.24 -0.24 l1.4 0 c0.88 0 1.52 -1.28 1.72 -3.96 c0.04 -0.76 0.36 -7.16 0.36 -13.08 l0 -3.6 c0 -2.36 -1.44 -4.6 -3.44 -4.64 l-1 -0.04 c-0.2 0 -0.24 -0.16 -0.24 -0.28 l0 -1.08 c0 -0.16 0.04 -0.24 0.24 -0.24 s0.52 0.04 1.28 0.04 c0.8 0.04 2.08 0.08 4.16 0.08 c1.36 0 2.56 -0.08 3.04 -0.08 c0.52 0 0.84 0.16 1.16 0.52 c0.2 0.24 8.08 9.88 9.28 11.36 c0.56 0.68 6.4 8 6.84 8.52 l0.16 0 z M37.72 26.04 l0 -2.8 c0 -0.96 -0.12 -8.16 -0.16 -8.68 c-0.08 -0.96 -0.48 -1.36 -1.32 -1.36 l-1.92 0 c-0.2 0 -0.32 -0.08 -0.32 -0.24 l0 -1.16 c0 -0.16 0.12 -0.24 0.28 -0.24 c0.48 0 2.52 0.12 6.44 0.12 c4.08 0 5.36 -0.12 5.92 -0.12 c0.2 0 0.28 0.12 0.28 0.36 l0 1 c0 0.2 -0.12 0.28 -0.32 0.28 l-1.16 0 c-1 0 -1.6 0.32 -1.6 1.04 c0 0.4 -0.12 9.24 -0.12 9.72 l0 3.08 c0 0.4 0.12 9.64 0.12 10 c0 1.24 0.6 1.44 1.36 1.44 l1.64 0 c0.2 0 0.32 0.08 0.32 0.28 l0 1.12 c0 0.16 -0.12 0.24 -0.36 0.24 c-0.48 0 -2.08 -0.12 -5.88 -0.12 c-4.2 0 -5.92 0.12 -6.36 0.12 c-0.2 0 -0.32 -0.08 -0.32 -0.32 l0 -1.08 c0 -0.16 0.12 -0.24 0.32 -0.24 l1.16 0 c0.8 0 1.64 -0.12 1.8 -1.08 c0.08 -0.6 0.2 -9.24 0.2 -11.36 z M55.519999999999996 25.32 c0 0.48 0.04 5.92 0.28 9.44 c0.12 1.48 0.76 3.72 2.08 3.72 l1.56 0 c0.24 0 0.28 0.12 0.28 0.28 l0 1.08 c0 0.16 -0.04 0.28 -0.36 0.28 c-0.44 0 -1.52 -0.12 -4.44 -0.12 c-3.4 0 -4.8 0.12 -5.16 0.12 c-0.32 0 -0.36 -0.04 -0.36 -0.36 l0 -1.04 c0 -0.12 0.04 -0.24 0.24 -0.24 l1.64 0 c1.28 0 1.76 -1.84 1.92 -3.12 c0.36 -2.84 0.72 -12.28 0.72 -13 l-0.04 -6.12 c0 -1.84 -0.4 -3.04 -2.2 -3.04 l-1.32 0 c-0.24 0 -0.28 -0.12 -0.28 -0.28 l0 -1.12 c0 -0.12 0.04 -0.24 0.28 -0.24 c0.4 0 1.48 0.12 6.2 0.12 c1.88 0 3.12 -0.12 3.6 -0.12 c0.4 0 0.72 0.04 0.96 0.68 c2.56 6.8 5.44 13.44 7.68 19.44 c0.44 -0.76 3.48 -8.2 3.72 -8.76 c0.16 -0.4 4.16 -9.96 4.36 -10.76 c0.12 -0.44 0.64 -0.48 1.84 -0.48 c6.24 0 7.6 -0.12 8.04 -0.12 c0.2 0 0.24 0.12 0.24 0.36 l0 0.92 c0 0.24 -0.04 0.36 -0.32 0.36 l-1.76 0 c-0.92 0 -1.04 0.72 -1.04 1.56 c0 0.6 0.04 10.44 0.08 11.28 c0 0.8 0.12 9.56 0.12 10.28 c0 1.52 0.36 2.16 0.92 2.16 l1.92 0 c0.24 0 0.28 0.12 0.28 0.28 l0 1 c0 0.24 -0.04 0.36 -0.36 0.36 c-0.48 0 -1.2 -0.12 -5.92 -0.12 c-4.08 0 -5.64 0.12 -6.16 0.12 c-0.28 0 -0.32 -0.12 -0.32 -0.36 l0 -1 c0 -0.2 0.04 -0.28 0.32 -0.28 l2.24 0 c0.68 0 1.04 -0.24 1.12 -1.36 c0.04 -0.48 0.16 -7.76 0.16 -10.56 l0 -12.2 l-0.24 0 c-0.4 0.68 -4.88 11.56 -5.6 13.2 c-0.84 1.84 -4.4 10.72 -4.6 11.08 c-0.2 0.32 -0.48 0.92 -0.96 0.92 c-0.28 0 -0.52 -0.28 -0.72 -0.72 c-0.12 -0.28 -5.4 -12.68 -5.68 -13.4 c-0.72 -1.84 -4.4 -10.8 -4.72 -11.28 c-0.16 0.56 -0.24 10.68 -0.24 11.16 z M93.55999999999999 27.32 l0 -4.72 c0 -1.48 -0.08 -6.36 -0.12 -7 c-0.12 -2.32 -0.76 -2.4 -2.08 -2.4 l-1.28 0 c-0.28 0 -0.28 -0.04 -0.28 -0.36 l0 -0.92 c0 -0.24 0.04 -0.36 0.32 -0.36 c0.52 0 2.44 0.12 6.24 0.12 c1.28 0 3.68 -0.12 6.4 -0.12 c2.88 0 5.44 0.28 6.84 1.08 c2.28 1.24 3.08 3.08 3.08 5.44 c0 2.64 -1.6 5.2 -5.84 6.6 l0 0.08 c4.96 1.28 7.56 3.68 7.56 7.92 c0 2.16 -1.2 5.12 -3.12 6.08 c-1.64 0.84 -4.44 1.48 -9.4 1.48 c-0.36 0 -1.4 -0.08 -2.52 -0.12 c-1.16 -0.08 -2.4 -0.12 -3.16 -0.12 c-2 0 -3.32 0.04 -4.2 0.04 c-0.84 0.04 -1.28 0.08 -1.56 0.08 c-0.4 0 -0.44 -0.12 -0.44 -0.44 l0 -0.88 c0 -0.24 0.04 -0.32 0.4 -0.32 l1.4 0 c1.2 0 1.4 -0.48 1.56 -1.68 c0.12 -0.92 0.2 -6.2 0.2 -9.48 z M99.39999999999999 21.2 l0 3.04 c1.64 0.16 4.2 -0.08 5.36 -1.12 c1.32 -1.16 1.92 -2.96 1.92 -4.72 c0 -1.52 -0.48 -3.12 -1.64 -4.04 c-1.36 -1.08 -3.32 -1.44 -3.76 -1.44 c-0.84 0 -1.72 0.04 -1.76 0.68 c-0.08 0.8 -0.12 4.28 -0.12 7.6 z M99.39999999999999 25.6 l0 7.92 c0 3.8 0.88 5.36 3 5.36 c2.84 0 5.52 -1.4 5.52 -6.4 c0 -3.24 -1.44 -5.36 -3.6 -6.2 c-2 -0.76 -3.92 -0.68 -4.92 -0.68 z M119.67999999999999 24.68 l0 -9.44 c0 -1.4 -0.28 -2.04 -1.12 -2.04 l-1.88 0 c-0.24 0 -0.28 -0.08 -0.28 -0.36 l0 -0.96 c0 -0.24 0.04 -0.32 0.36 -0.32 c0.4 0 2.36 0.12 6.56 0.12 c3.52 0 5.44 -0.12 5.88 -0.12 c0.32 0 0.36 0.08 0.36 0.32 l0 1.04 c0 0.2 -0.04 0.28 -0.32 0.28 l-1.36 0 c-1.36 0 -2.04 0.76 -2.12 1.56 c-0.04 0.44 -0.08 3.16 -0.08 5.2 l0 2.64 c0 2.12 0.16 7.2 0.2 8.48 c0.04 1.84 0.4 3.64 1.28 4.76 c1.32 1.6 3.2 2.24 5 2.24 c1.48 0 3.64 -0.76 4.72 -1.76 c1.6 -1.44 2.52 -3.64 2.52 -6.52 l0 -6.16 c0 -3.36 -0.4 -7.76 -0.56 -8.68 c-0.16 -1.04 -0.8 -1.76 -1.48 -1.76 l-1.28 0 c-0.24 0 -0.28 -0.12 -0.28 -0.32 l0 -1.04 c0 -0.2 0.04 -0.28 0.28 -0.28 c0.4 0 2.24 0.12 4.96 0.12 c2.16 0 3.44 -0.12 3.8 -0.12 s0.4 0.16 0.4 0.36 l0 0.88 c0 0.24 -0.04 0.4 -0.24 0.4 l-1.24 0 c-1.52 0 -1.64 1.12 -1.72 1.52 c-0.08 0.56 -0.08 6.08 -0.08 6.64 s-0.08 7.56 -0.2 9.12 c-0.24 3.28 -1.32 5.8 -3.4 7.64 c-1.76 1.56 -4.48 2.48 -7.08 2.48 c-1.88 0 -4.44 -0.28 -6.12 -1 c-1.92 -0.84 -3.68 -2.72 -4.64 -5.28 c-0.68 -1.72 -0.84 -4.4 -0.84 -9.64 z M148.51999999999998 31.08 l1.04 0.08 c0.16 0 0.28 0.04 0.28 0.32 c0.08 1.24 0.64 2.96 1.6 4.52 c1.16 1.84 3.12 2.72 5.04 2.72 s5 -1.28 5 -4.44 c0 -3.32 -0.64 -4.28 -5.84 -6.24 c-1.2 -0.44 -3.76 -1.72 -5.8 -3.48 c-1.4 -1.24 -2 -3.36 -2 -5.68 c0 -2.44 0.6 -4.08 3 -5.88 c1.8 -1.36 3.32 -1.92 5.76 -1.92 c2.92 0 4.48 0.48 5.32 0.8 c0.4 0.16 0.68 0.08 0.92 -0.2 l0.52 -0.52 c0.16 -0.16 0.36 -0.24 0.6 -0.24 c0.28 0 0.36 0.44 0.4 0.68 l0.64 6.84 c0 0.16 -0.08 0.2 -0.2 0.24 l-0.88 0.28 c-0.2 0.08 -0.4 0 -0.52 -0.28 c-0.44 -1.16 -1.12 -2.72 -2.48 -4.16 c-1 -1.12 -2.2 -1.68 -4 -1.68 c-3 0 -4.24 2.6 -4.24 3.64 c0 1.48 0.04 2.68 1.04 3.68 c1.04 1.08 3.32 2.04 5.28 2.6 c1.92 0.56 3.48 1.56 5.12 3.04 c1.56 1.4 2.2 3.16 2.2 5.96 c0 4.88 -3.48 8.84 -8.76 8.84 c-3.6 0 -5.48 -0.6 -7.16 -1.72 c-0.48 -0.32 -0.72 -0.44 -0.92 -0.44 c-0.24 0 -0.4 0.28 -0.64 0.68 c-0.24 0.44 -0.44 0.48 -0.72 0.48 c-0.44 0 -0.6 -0.2 -0.56 -0.64 l0.64 -7.6 c0.04 -0.28 0.16 -0.28 0.32 -0.28 z">
        </path>
    </g>
    <g id="SvgjsG2574" featurekey="nameFeature-1" transform="matrix(2.8229449739380703,0,0,2.8229449739380703,-3.38753410333419,142.36675760889116)" fill="#7F8C8D">
        <path d="M4.76 25.96 l0 -1.72 c0 -2.48 -0.08 -7.88 -0.08 -8.44 c0 -2.04 -0.28 -2.6 -1.36 -2.6 l-1.64 0 c-0.44 0 -0.48 -0.16 -0.48 -0.4 l0 -0.76 c0 -0.24 0.04 -0.48 0.44 -0.48 c0.68 0 1.96 0.12 5.96 0.12 c3.92 0 5.36 -0.12 6.04 -0.12 c0.44 0 0.48 0.12 0.48 0.44 l0 0.84 c0 0.24 -0.04 0.36 -0.48 0.36 l-0.96 0 c-1.44 0 -1.64 0.68 -1.76 2.2 c-0.04 0.56 -0.24 5.84 -0.24 8.08 l0 0.6 c0 0.2 0.12 0.32 0.64 0.32 l11.96 0 c0.6 0 0.8 -0.08 0.8 -0.52 l0 -0.4 c0 -2.28 -0.28 -7.84 -0.28 -8.24 c-0.04 -1.28 -0.2 -2.04 -0.92 -2.04 l-1.64 0 c-0.36 0 -0.4 -0.12 -0.4 -0.4 l0 -0.88 c0 -0.24 0.04 -0.36 0.36 -0.36 c0.72 0 2.44 0.12 5.84 0.12 c3.32 0 5 -0.12 5.52 -0.12 c0.48 0 0.52 0.12 0.52 0.44 l0 0.76 c0 0.28 -0.04 0.44 -0.52 0.44 l-1.2 0 c-1.16 0 -1.28 0.68 -1.28 2.04 c0 0.56 -0.08 7.32 -0.08 8.8 l0 1.36 c0 1.28 0.08 8.88 0.12 11.08 c0 1.44 0.4 2 1.6 2 l1.36 0 c0.32 0 0.36 0.12 0.36 0.36 l0 0.88 c0 0.2 -0.04 0.4 -0.44 0.4 c-0.64 0 -2 -0.12 -5.6 -0.12 c-4.08 0 -5.36 0.12 -6.28 0.12 c-0.44 0 -0.52 -0.2 -0.52 -0.4 l0 -0.88 c0 -0.24 0.04 -0.36 0.44 -0.36 l1.76 0 c0.96 0 1.08 -0.76 1.12 -1.76 c0.08 -1.88 0.16 -8.32 0.16 -9.6 l0 -0.48 c0 -0.44 -0.4 -0.48 -0.88 -0.48 l-11.96 0 c-0.44 0 -0.56 0.12 -0.56 0.48 l0 0.6 c0 1 0.16 7.16 0.28 9.88 c0.04 0.96 0.44 1.36 1.32 1.36 l1.12 0 c0.32 0 0.36 0.08 0.36 0.32 l0 0.96 c0 0.24 -0.04 0.36 -0.36 0.36 c-0.72 0 -2.12 -0.12 -5.48 -0.12 c-4.24 0 -5.44 0.12 -6.24 0.12 c-0.36 0 -0.4 -0.12 -0.4 -0.44 l0 -0.84 c0 -0.28 0.04 -0.36 0.4 -0.36 l1.84 0 c1 0 1.12 -0.96 1.12 -1.84 c0.04 -1.88 0.12 -9.64 0.12 -10.68 z M38.28 24.68 l0 -9.44 c0 -1.4 -0.28 -2.04 -1.12 -2.04 l-1.88 0 c-0.24 0 -0.28 -0.08 -0.28 -0.36 l0 -0.96 c0 -0.24 0.04 -0.32 0.36 -0.32 c0.4 0 2.36 0.12 6.56 0.12 c3.52 0 5.44 -0.12 5.88 -0.12 c0.32 0 0.36 0.08 0.36 0.32 l0 1.04 c0 0.2 -0.04 0.28 -0.32 0.28 l-1.36 0 c-1.36 0 -2.04 0.76 -2.12 1.56 c-0.04 0.44 -0.08 3.16 -0.08 5.2 l0 2.64 c0 2.12 0.16 7.2 0.2 8.48 c0.04 1.84 0.4 3.64 1.28 4.76 c1.32 1.6 3.2 2.24 5 2.24 c1.48 0 3.64 -0.76 4.72 -1.76 c1.6 -1.44 2.52 -3.64 2.52 -6.52 l0 -6.16 c0 -3.36 -0.4 -7.76 -0.56 -8.68 c-0.16 -1.04 -0.8 -1.76 -1.48 -1.76 l-1.28 0 c-0.24 0 -0.28 -0.12 -0.28 -0.32 l0 -1.04 c0 -0.2 0.04 -0.28 0.28 -0.28 c0.4 0 2.24 0.12 4.96 0.12 c2.16 0 3.44 -0.12 3.8 -0.12 s0.4 0.16 0.4 0.36 l0 0.88 c0 0.24 -0.04 0.4 -0.24 0.4 l-1.24 0 c-1.52 0 -1.64 1.12 -1.72 1.52 c-0.08 0.56 -0.08 6.08 -0.08 6.64 s-0.08 7.56 -0.2 9.12 c-0.24 3.28 -1.32 5.8 -3.4 7.64 c-1.76 1.56 -4.48 2.48 -7.08 2.48 c-1.88 0 -4.44 -0.28 -6.12 -1 c-1.92 -0.84 -3.68 -2.72 -4.64 -5.28 c-0.68 -1.72 -0.84 -4.4 -0.84 -9.64 z M68.91999999999999 27.32 l0 -4.72 c0 -1.48 -0.08 -6.36 -0.12 -7 c-0.12 -2.32 -0.76 -2.4 -2.08 -2.4 l-1.28 0 c-0.28 0 -0.28 -0.04 -0.28 -0.36 l0 -0.92 c0 -0.24 0.04 -0.36 0.32 -0.36 c0.52 0 2.44 0.12 6.24 0.12 c1.28 0 3.68 -0.12 6.4 -0.12 c2.88 0 5.44 0.28 6.84 1.08 c2.28 1.24 3.08 3.08 3.08 5.44 c0 2.64 -1.6 5.2 -5.84 6.6 l0 0.08 c4.96 1.28 7.56 3.68 7.56 7.92 c0 2.16 -1.2 5.12 -3.12 6.08 c-1.64 0.84 -4.44 1.48 -9.4 1.48 c-0.36 0 -1.4 -0.08 -2.52 -0.12 c-1.16 -0.08 -2.4 -0.12 -3.16 -0.12 c-2 0 -3.32 0.04 -4.2 0.04 c-0.84 0.04 -1.28 0.08 -1.56 0.08 c-0.4 0 -0.44 -0.12 -0.44 -0.44 l0 -0.88 c0 -0.24 0.04 -0.32 0.4 -0.32 l1.4 0 c1.2 0 1.4 -0.48 1.56 -1.68 c0.12 -0.92 0.2 -6.2 0.2 -9.48 z M74.75999999999999 21.2 l0 3.04 c1.64 0.16 4.2 -0.08 5.36 -1.12 c1.32 -1.16 1.92 -2.96 1.92 -4.72 c0 -1.52 -0.48 -3.12 -1.64 -4.04 c-1.36 -1.08 -3.32 -1.44 -3.76 -1.44 c-0.84 0 -1.72 0.04 -1.76 0.68 c-0.08 0.8 -0.12 4.28 -0.12 7.6 z M74.75999999999999 25.6 l0 7.92 c0 3.8 0.88 5.36 3 5.36 c2.84 0 5.52 -1.4 5.52 -6.4 c0 -3.24 -1.44 -5.36 -3.6 -6.2 c-2 -0.76 -3.92 -0.68 -4.92 -0.68 z">
        </path>
    </g>
</svg>