<?xml version="1.0" standalone="no"?>
<!DOCTYPE svg PUBLIC "-//W3C//DTD SVG 20010904//EN"
 "http://www.w3.org/TR/2001/REC-SVG-20010904/DTD/svg10.dtd">
<svg version="1.0" xmlns="http://www.w3.org/2000/svg"
 width="512.000000pt" height="512.000000pt" viewBox="0 0 512.000000 512.000000"
 preserveAspectRatio="xMidYMid meet">
<metadata>
Created by potrace 1.14, written by Peter Selinger 2001-2017
</metadata>
<g transform="translate(0.000000,512.000000) scale(0.100000,-0.100000)"
fill="#000000" stroke="none">
<path d="M2530 3764 c0 -6 -12 -11 -27 -11 -67 -2 -131 -11 -151 -22 -12 -6
-22 -10 -22 -7 0 10 -149 -57 -205 -92 -22 -14 -45 -25 -52 -25 -7 0 -10 -4
-7 -8 2 -4 -10 -18 -28 -30 -18 -13 -57 -48 -87 -79 -30 -30 -58 -54 -63 -53
-4 2 -5 -4 -2 -12 4 -8 2 -15 -4 -15 -5 0 -12 -9 -15 -21 -3 -12 -10 -19 -14
-16 -5 3 -10 -3 -10 -14 -2 -22 -28 -51 -37 -41 -4 3 -4 -1 -1 -10 4 -9 -2
-31 -11 -50 -10 -18 -19 -39 -20 -47 -2 -8 -6 -17 -11 -20 -4 -3 -8 -12 -9
-18 -2 -30 -5 -34 -15 -27 -8 5 -8 1 0 -14 7 -14 8 -23 1 -27 -6 -4 -8 -10 -5
-15 3 -5 -2 -16 -11 -24 -8 -9 -11 -16 -5 -16 6 0 11 -5 11 -11 0 -7 -8 -9
-22 -4 -13 3 -29 7 -35 7 -7 1 -13 4 -13 8 0 7 -2 7 -143 17 -59 4 -107 5
-107 2 0 -4 -17 -9 -37 -12 -54 -9 -63 -11 -107 -30 -21 -9 -43 -14 -50 -10
-6 3 -8 3 -4 -2 11 -11 -50 -47 -65 -39 -7 4 -9 4 -5 -1 7 -7 -21 -38 -78 -82
-16 -13 -24 -23 -20 -23 5 0 1 -9 -9 -20 -10 -11 -22 -17 -27 -14 -4 3 -8 2
-7 -3 1 -4 -3 -21 -10 -37 -10 -25 -13 -27 -29 -15 -15 12 -16 12 -5 -2 13
-16 6 -62 -7 -54 -5 3 -11 1 -15 -5 -3 -5 -1 -10 6 -10 8 0 8 -4 -1 -15 -7 -8
-9 -15 -4 -15 5 0 0 -7 -10 -15 -12 -9 -15 -15 -7 -15 9 0 10 -4 4 -12 -6 -7
-11 -20 -11 -28 -2 -32 -9 -67 -17 -79 -6 -10 -3 -11 14 -2 21 12 60 9 83 -5
8 -5 7 0 -2 11 -14 17 -14 18 7 6 13 -6 20 -17 17 -25 -3 -8 -1 -17 5 -21 7
-3 8 0 5 10 -4 10 -1 14 7 12 8 -2 11 -2 6 0 -4 3 -4 10 -1 15 4 7 2 8 -4 4
-7 -4 -12 -2 -12 3 0 10 28 16 58 12 6 -1 12 4 12 11 0 9 3 9 10 -2 5 -8 10
-10 10 -5 0 12 37 17 44 7 3 -4 -4 -9 -15 -10 -43 -4 -49 -6 -49 -15 0 -5 8
-6 18 -2 28 12 62 14 62 4 0 -5 5 -9 10 -9 6 0 4 11 -5 23 l-15 24 45 -2 c31
-2 43 1 38 9 -3 6 0 6 8 -1 15 -14 43 -18 35 -5 -3 5 1 9 9 9 8 0 12 -4 9 -9
-3 -4 4 -9 15 -9 30 -2 34 -3 51 -14 13 -8 13 -7 1 8 -7 9 -18 14 -25 10 -6
-3 -7 -2 -3 3 10 11 157 14 157 3 0 -4 -9 -6 -20 -4 -11 2 -22 -1 -26 -6 -4
-6 -10 -6 -19 1 -10 8 -15 8 -20 0 -5 -8 -11 -8 -21 1 -12 10 -13 9 -8 -5 7
-18 20 -21 29 -6 4 6 11 7 17 4 6 -4 5 -10 -3 -15 -8 -5 -9 -9 -3 -9 6 0 14 3
18 7 4 5 12 9 17 9 5 1 11 3 14 4 7 3 22 7 36 9 5 0 8 5 5 9 -2 4 5 9 16 9 16
2 18 -1 9 -10 -21 -21 -11 -28 11 -7 24 22 47 28 29 6 -9 -11 -6 -13 14 -11
14 2 27 -1 31 -6 3 -5 15 -14 27 -19 20 -10 20 -10 5 3 -10 8 -15 17 -11 20 3
4 12 2 20 -5 11 -9 13 -8 11 3 -2 11 10 14 50 14 30 0 56 -3 58 -7 2 -4 13 -5
24 -3 12 2 20 -2 20 -10 0 -19 17 -28 26 -14 4 8 3 9 -4 5 -8 -5 -10 -1 -5 10
6 16 7 16 18 0 12 -16 31 -23 21 -8 -3 5 1 9 9 9 8 0 12 -4 9 -9 -3 -4 -7 -17
-9 -29 -3 -16 -1 -18 9 -10 7 6 22 9 35 6 12 -2 19 0 16 6 -4 5 -1 9 6 9 7 0
9 3 6 6 -4 4 -13 1 -22 -6 -11 -9 -15 -9 -15 -1 0 7 -5 9 -12 5 -6 -4 -8 -3
-5 3 8 13 55 14 63 2 2 -4 11 -6 18 -3 8 3 17 0 21 -5 3 -6 11 -8 17 -5 7 4 8
2 4 -4 -5 -8 -13 -9 -25 -3 -13 7 -18 6 -18 -3 0 -17 47 -12 58 6 7 11 9 11 9
-1 0 -7 6 -11 15 -8 8 4 17 2 20 -3 3 -5 12 -7 20 -3 20 7 19 -7 -2 -24 -16
-13 -16 -13 4 -3 25 11 82 10 89 -2 3 -5 11 -6 17 -2 7 3 4 -1 -6 -9 -16 -13
-16 -15 -2 -21 9 -3 14 -2 11 3 -3 5 1 12 10 15 12 5 15 2 10 -11 -6 -14 -4
-15 5 -6 8 8 19 9 35 3 13 -5 24 -7 24 -5 0 3 11 -2 24 -11 14 -8 27 -15 30
-15 4 1 5 -2 4 -6 -2 -4 -12 -9 -23 -10 -16 -3 -17 -1 -5 7 8 5 11 10 5 10 -5
0 -17 -5 -25 -10 -15 -10 -13 -11 26 -15 12 -1 27 -6 34 -10 8 -5 11 -4 6 3
-3 6 -1 14 5 18 8 5 9 3 4 -6 -6 -10 -4 -12 10 -6 16 6 16 4 4 -11 -13 -15
-12 -15 5 -6 14 8 26 6 47 -6 16 -9 29 -19 29 -24 0 -4 -12 0 -27 9 -19 11
-22 11 -11 2 10 -8 16 -17 13 -19 -2 -3 5 -5 15 -6 11 -1 20 4 20 10 0 8 3 8
8 2 4 -6 23 -22 42 -35 19 -13 39 -30 43 -37 5 -7 12 -11 17 -8 5 3 12 0 16
-6 4 -7 3 -9 -3 -6 -6 4 -13 -3 -16 -15 -4 -15 -3 -18 5 -10 16 16 38 3 38
-22 0 -17 2 -18 10 -6 9 13 10 13 11 0 0 -8 2 -23 4 -33 2 -9 -1 -15 -6 -11
-5 3 -6 10 -3 16 5 8 1 9 -10 5 -10 -4 -15 -3 -11 3 3 6 1 10 -5 10 -6 0 -18
7 -27 15 -8 8 -19 13 -24 10 -12 -8 -11 2 2 27 9 16 8 19 -2 13 -7 -5 -10 -4
-6 1 3 5 -3 10 -14 10 -19 0 -19 -1 -3 -13 10 -7 15 -15 13 -18 -7 -7 -59 18
-59 28 0 5 -4 6 -9 2 -5 -3 -12 -1 -16 5 -3 5 -15 10 -25 10 -10 0 -20 5 -22
10 -2 6 -13 12 -26 15 -29 5 -43 15 -37 24 2 5 -7 6 -20 3 -14 -2 -25 0 -25 4
0 5 -14 10 -31 11 -17 1 -36 7 -43 12 -6 5 -25 12 -41 15 -17 2 -31 5 -32 6
-5 4 -23 8 -49 9 -14 0 -23 5 -20 9 3 5 -5 8 -17 7 -12 -1 -38 2 -57 7 -19 4
-57 11 -85 14 -27 3 -53 11 -56 16 -4 7 -9 6 -13 -1 -4 -6 -12 -9 -17 -5 -5 3
-31 8 -57 10 -77 8 -100 12 -113 20 -7 4 -10 3 -6 -3 4 -7 -10 -9 -41 -6 -54
5 -319 5 -372 -1 -19 -2 -41 2 -49 8 -11 8 -13 8 -7 -1 5 -9 -2 -13 -26 -14
-39 -1 -70 -5 -122 -14 -28 -5 -41 -3 -47 7 -7 10 -9 9 -9 -5 0 -11 -5 -17
-12 -14 -7 2 -21 0 -30 -5 -12 -6 -18 -5 -18 3 0 8 -5 7 -17 -2 -9 -8 -18 -13
-20 -11 -1 1 -4 2 -5 1 -3 0 -28 -6 -63 -13 -5 -1 -16 -6 -24 -10 -11 -7 -13
-5 -7 10 6 16 4 16 -14 -3 -22 -24 -36 -31 -25 -12 5 7 2 7 -11 0 -36 -19
-124 -42 -135 -35 -8 4 -9 3 -5 -4 6 -11 -20 -18 -47 -13 -5 1 -6 -3 -2 -9 3
-5 0 -10 -7 -10 -7 0 -48 -18 -92 -40 -43 -22 -83 -37 -89 -33 -6 3 -7 1 -3
-5 8 -13 -28 -35 -39 -24 -5 4 -5 1 -1 -5 4 -8 1 -13 -7 -13 -8 0 -18 -7 -21
-16 -3 -9 -13 -14 -21 -11 -10 4 -12 1 -8 -10 5 -13 2 -15 -11 -10 -11 4 -15
3 -11 -4 7 -11 -45 -65 -58 -61 -5 1 -6 -2 -2 -8 3 -5 0 -20 -7 -32 -6 -13
-13 -27 -14 -33 -2 -5 -7 -25 -13 -42 -5 -18 -7 -33 -4 -33 3 0 -1 -8 -8 -17
-8 -10 -9 -14 -2 -10 6 4 14 3 18 -3 3 -5 2 -10 -3 -10 -6 0 -13 -7 -16 -16
-3 -8 -2 -12 4 -9 15 9 30 -37 18 -52 -6 -7 -15 -10 -22 -6 -6 3 -7 2 -3 -2
10 -12 38 -15 32 -4 -4 5 1 6 10 3 12 -5 13 -9 4 -20 -9 -11 -8 -14 5 -14 10
0 14 -4 11 -10 -3 -5 2 -10 11 -10 16 0 15 -2 -2 -22 -10 -12 -14 -18 -7 -15
6 4 13 4 16 0 2 -5 2 -2 1 5 -4 14 5 15 26 2 13 -9 13 -10 0 -10 -13 0 -13 -2
0 -9 8 -6 19 -7 25 -4 5 3 4 0 -2 -8 -7 -7 -13 -18 -13 -23 0 -6 4 -5 9 3 7
10 12 11 27 1 12 -7 13 -10 4 -7 -11 3 -16 -2 -16 -18 0 -13 4 -21 8 -19 5 3
6 10 3 15 -4 5 2 9 13 9 24 0 72 -37 72 -55 0 -13 22 -26 43 -24 7 0 2 4 -10
9 -13 5 -23 15 -23 22 0 9 3 9 8 2 8 -12 43 -28 55 -25 5 1 5 -4 1 -10 -5 -9
-2 -10 9 -6 10 3 17 2 17 -4 0 -6 5 -7 10 -4 6 3 10 1 10 -5 0 -7 -8 -9 -19
-5 -14 4 -19 1 -17 -9 1 -9 6 -19 11 -23 4 -4 5 -2 1 5 -5 9 0 12 21 10 16 -1
34 1 41 6 7 4 14 2 17 -6 3 -8 15 -15 27 -15 12 -1 24 -6 27 -11 3 -5 15 -8
26 -6 11 2 28 -5 38 -14 11 -9 21 -16 23 -14 10 6 34 1 34 -8 0 -5 -6 -8 -13
-6 -6 1 -9 1 -4 -1 4 -3 5 -8 3 -12 -3 -4 1 -8 9 -8 8 0 12 4 10 8 -3 3 2 12
10 19 12 10 15 10 15 0 0 -7 7 -10 15 -7 20 8 29 -11 15 -28 -9 -11 -9 -15 -1
-15 6 0 11 5 11 10 0 6 3 9 8 9 4 -1 9 0 12 1 19 7 39 7 35 0 -3 -5 8 -7 25
-5 16 2 30 0 30 -5 0 -15 -18 -21 -24 -8 -2 7 -4 3 -2 -9 1 -12 5 -25 9 -28 4
-3 5 -2 2 2 -9 12 16 32 33 26 15 -4 15 -3 2 6 -12 9 -9 10 15 6 17 -4 41 -7
55 -8 18 -1 24 -7 22 -20 -2 -14 2 -17 22 -13 14 2 27 -1 30 -7 3 -9 5 -9 5 1
1 17 21 15 44 -6 20 -17 20 -17 3 9 -13 21 -14 26 -2 26 8 0 14 -5 13 -10 -1
-5 4 -12 12 -15 8 -2 11 -1 8 4 -3 5 15 9 39 10 24 1 44 -2 44 -6 0 -4 -12 -6
-27 -5 -28 2 -53 -10 -53 -26 0 -5 8 -9 18 -9 14 0 15 2 2 10 -8 5 -13 10 -10
11 3 0 13 2 23 4 14 3 17 -1 13 -13 -5 -13 -2 -12 9 2 8 11 15 16 15 12 0 -5
7 -3 15 4 12 10 15 10 16 -1 0 -8 4 -5 9 6 8 19 9 19 9 -3 1 -12 6 -21 13 -20
7 2 12 -2 13 -9 0 -6 4 -15 9 -20 5 -4 6 -3 3 4 -4 6 -1 14 5 16 10 4 10 6 0
6 -7 1 -10 6 -6 13 4 6 3 8 -4 4 -6 -3 -13 -3 -16 2 -2 4 25 7 62 7 41 -1 67
-6 70 -13 2 -7 8 -12 14 -12 6 0 8 6 5 13 -5 15 48 18 70 4 6 -4 14 -1 16 5 3
8 6 6 6 -4 1 -20 -14 -24 -25 -7 -4 8 -9 7 -14 -2 -7 -10 -11 -10 -24 0 -11 9
-16 10 -16 2 0 -6 5 -11 11 -11 5 0 7 -5 3 -11 -4 -8 -1 -8 12 -1 11 5 33 9
51 7 27 -1 31 1 23 15 -6 12 -5 17 5 17 8 0 12 -4 9 -9 -3 -4 -1 -8 5 -8 6 0
8 -8 5 -17 -5 -14 -4 -15 4 -4 6 8 8 19 6 26 -5 12 54 13 74 1 8 -4 12 0 12
11 0 14 2 15 9 4 5 -8 7 -21 3 -30 -3 -9 -2 -13 2 -9 4 3 9 14 10 24 2 12 12
18 27 19 13 0 29 3 34 7 6 4 17 3 24 -2 8 -4 27 -4 42 0 16 5 29 6 29 2 0 -4
5 0 11 8 9 13 10 13 6 0 -2 -8 -10 -15 -18 -15 -15 0 -22 -42 -8 -50 4 -3 6 7
3 22 -3 15 -2 24 2 20 4 -4 13 -2 20 3 14 12 36 10 46 -5 5 -6 8 -5 8 3 0 7 5
10 12 6 6 -4 8 -3 4 4 -3 6 -15 9 -26 7 -11 -2 -22 0 -25 4 -5 9 28 7 78 -4
15 -3 27 -1 27 4 0 6 -9 8 -20 6 -11 -2 -22 0 -25 5 -3 4 3 7 12 5 10 -1 24 3
32 9 11 8 13 8 7 -1 -9 -16 6 -17 22 -1 6 6 25 11 42 10 16 0 30 4 30 10 0 6
3 8 6 5 10 -10 -17 -38 -29 -30 -6 3 -7 1 -3 -6 6 -9 11 -9 23 0 8 7 22 14 31
15 29 4 47 9 59 17 6 4 14 3 18 -3 3 -5 1 -10 -6 -10 -7 0 -10 -3 -6 -6 3 -3
11 -3 17 1 8 5 8 11 -1 21 -9 12 -15 12 -27 2 -13 -11 -14 -10 -10 2 2 8 13
16 24 17 34 4 52 9 65 19 8 6 21 10 29 9 8 0 19 4 23 10 5 6 7 4 4 -5 -2 -8
-9 -14 -15 -13 -6 2 -9 -4 -5 -13 4 -12 8 -11 22 8 9 13 15 27 13 31 -1 5 2 6
8 2 5 -3 19 1 31 9 20 14 54 12 44 -3 -2 -4 2 -8 9 -8 7 0 13 6 13 13 0 7 -4
11 -8 8 -4 -2 -10 0 -13 5 -3 5 14 8 40 6 35 -2 47 2 55 17 5 10 14 16 20 13
5 -4 9 -1 9 4 0 6 -5 11 -12 11 -6 0 -8 3 -5 7 4 4 39 7 77 8 65 2 87 -3 43
-9 -10 -2 -17 -6 -15 -9 1 -4 2 -9 2 -12 0 -3 11 2 25 11 23 15 30 13 26 -8
-2 -16 15 -7 28 14 13 20 12 22 -1 11 -8 -7 -18 -10 -21 -6 -14 13 -6 19 26
18 17 -1 35 3 38 8 4 5 10 0 14 -12 7 -22 20 -27 30 -11 3 6 11 10 17 10 6 0
5 -7 -3 -17 -13 -16 -12 -17 4 -4 13 11 15 17 6 28 -10 11 -8 12 6 7 13 -5 16
-4 11 4 -5 8 -2 10 9 5 14 -5 14 -8 3 -15 -10 -8 -9 -9 4 -4 10 3 20 1 24 -5
9 -15 34 9 27 27 -3 8 0 14 6 14 6 0 11 -4 11 -10 0 -5 7 -10 15 -10 8 0 15 5
15 11 0 5 -5 7 -12 3 -7 -4 -8 -3 -4 5 4 6 11 9 16 6 5 -3 12 0 15 5 5 8 13 6
24 -4 10 -9 21 -13 24 -9 4 3 7 1 7 -6 0 -8 -6 -11 -16 -7 -8 3 -12 2 -9 -4 3
-6 2 -10 -4 -10 -5 0 -15 8 -20 17 -6 10 -11 13 -11 7 0 -24 26 -35 54 -23 14
7 24 15 22 18 -2 3 6 6 19 6 13 0 21 -3 18 -7 -2 -5 3 -8 12 -8 9 0 13 -4 10
-10 -3 -6 1 -7 9 -4 9 3 14 9 11 13 -2 4 2 8 10 8 8 0 12 -4 9 -8 -2 -4 4 -12
14 -18 23 -12 64 -3 55 13 -4 6 1 4 12 -4 10 -8 20 -14 22 -12 3 2 8 0 11 -4
4 -4 1 -4 -5 0 -7 4 -13 3 -13 -3 0 -5 9 -9 19 -8 12 1 17 6 13 15 -4 11 -1
12 14 5 10 -6 25 -8 32 -6 6 3 12 1 12 -4 0 -4 9 -14 21 -21 16 -10 19 -10 13
-1 -5 9 -2 10 10 6 14 -6 17 -3 12 10 -5 13 0 11 18 -6 15 -14 26 -20 26 -15
0 5 5 2 11 -6 9 -13 10 -13 6 0 -2 8 -9 14 -15 13 -5 -1 -12 3 -15 10 -3 7 3
13 13 13 10 0 16 -4 14 -8 -3 -5 9 -7 27 -6 19 2 34 -2 36 -9 3 -7 -4 -13 -14
-14 -11 0 -13 -3 -5 -6 14 -5 44 15 38 26 -2 3 22 6 54 6 37 0 56 -4 53 -11
-2 -6 -20 -10 -40 -8 -46 3 -60 -3 -60 -23 0 -13 2 -13 11 -1 12 15 60 23 51
8 -3 -4 3 -7 12 -5 10 1 25 -3 33 -9 13 -9 13 -9 2 5 -18 23 3 38 51 35 20 -2
37 0 37 4 0 4 6 7 14 7 8 0 12 -6 9 -14 -3 -7 -8 -11 -12 -9 -4 3 -13 0 -21
-5 -12 -7 -10 -8 7 -6 11 2 28 8 35 15 8 6 18 9 21 5 4 -3 7 -2 7 4 0 21 83 6
102 -17 10 -12 18 -17 18 -12 0 6 -4 14 -10 17 -5 3 -10 11 -10 17 0 6 7 5 16
-3 25 -21 74 -19 87 2 7 11 15 19 20 19 4 0 6 -4 3 -9 -10 -16 23 -21 38 -6
16 17 30 20 21 6 -10 -18 13 -21 26 -4 10 12 10 14 2 9 -8 -4 -13 -2 -13 4 0
7 6 10 14 7 8 -3 17 -3 21 1 6 7 21 8 108 11 26 1 36 5 31 13 -4 7 -3 8 4 4 6
-4 8 -14 5 -23 -4 -11 -3 -14 5 -9 7 4 12 14 12 23 0 9 3 13 7 10 3 -4 13 -1
21 6 9 6 13 7 10 2 -4 -6 1 -16 11 -22 14 -9 18 -8 18 3 0 7 -4 11 -9 8 -4 -3
-8 0 -8 6 0 7 6 10 14 7 8 -3 17 -3 20 1 4 3 12 7 19 8 7 1 26 5 42 9 62 14
86 15 79 4 -3 -6 -12 -8 -20 -5 -8 3 -11 0 -7 -10 7 -18 19 -18 27 2 3 8 10
13 15 9 5 -3 13 0 16 6 4 5 14 8 22 5 8 -3 12 -2 9 2 -2 4 2 16 10 27 12 16
16 17 27 5 8 -9 8 -11 0 -6 -17 9 -26 -11 -13 -31 10 -16 10 -15 5 4 -5 18 -2
21 15 18 17 -3 19 -1 10 16 -6 10 -7 19 -3 18 26 -4 43 2 37 14 -4 6 -4 9 1 5
4 -4 14 -3 21 3 18 15 29 -8 12 -29 -11 -15 -11 -15 3 -5 9 7 19 10 22 6 11
-10 8 6 -4 29 -7 12 -7 18 -1 14 6 -3 12 -3 15 1 2 5 2 3 1 -4 -2 -7 2 -15 8
-19 6 -4 8 -3 4 4 -3 6 -2 13 4 17 6 4 8 9 6 13 -2 4 7 8 20 8 15 1 22 -2 17
-10 -3 -6 3 -3 14 7 11 9 23 14 27 10 4 -4 4 0 1 9 -7 18 34 68 56 68 7 0 9 3
6 6 -8 9 11 44 23 44 6 0 10 -8 11 -17 0 -12 2 -13 6 -5 3 7 -1 19 -7 27 -12
15 -4 20 25 16 6 -1 2 5 -8 13 -15 12 -16 14 -2 20 8 3 15 11 15 18 0 9 -3 9
-11 -2 -9 -12 -10 -10 -5 9 10 48 -80 179 -137 197 -9 3 -15 10 -11 15 3 5 2
8 -3 7 -12 -4 -73 26 -73 35 0 5 -4 6 -8 3 -4 -2 -28 4 -52 16 -25 11 -54 22
-65 24 -35 7 -95 30 -91 35 2 2 -5 5 -17 5 -12 1 -35 4 -52 7 -16 3 -34 5 -38
6 -5 0 -6 4 -4 9 3 4 -9 7 -26 6 -45 -1 -68 6 -60 20 4 7 1 6 -9 -1 -8 -7 -17
-11 -19 -9 -4 4 -47 12 -109 20 -14 2 -27 5 -30 6 -3 1 -15 1 -26 1 -29 -3
-41 29 -18 46 14 10 15 13 3 13 -8 0 -15 9 -16 21 -2 18 0 19 15 7 16 -12 16
-11 0 7 -15 19 -29 72 -29 118 0 9 -5 17 -11 17 -6 0 -5 6 2 16 11 12 11 15
-1 12 -8 -2 -13 4 -13 14 1 10 -3 15 -9 11 -6 -4 -8 2 -4 16 3 13 3 20 0 17
-9 -8 -45 43 -38 54 3 5 -1 10 -9 10 -9 0 -16 4 -16 9 0 5 -21 29 -47 53 -25
23 -54 51 -64 60 -9 9 -20 14 -23 10 -3 -3 -6 -1 -6 4 0 6 -16 16 -35 22 -25
10 -33 17 -29 30 4 11 3 13 -3 5 -9 -13 -53 -6 -53 8 0 5 -7 5 -17 2 -9 -4
-14 -2 -11 3 4 5 -6 10 -20 10 -48 2 -99 11 -112 19 -9 5 -11 4 -6 -3 4 -7 3
-12 -3 -12 -5 0 -13 5 -16 10 -4 6 -12 7 -18 3 -7 -5 -29 -8 -49 -8 -21 0 -38
-4 -38 -8 0 -5 -5 -5 -10 -2 -6 4 -17 1 -25 -5 -8 -7 -15 -10 -15 -7 0 3 -16
-1 -36 -9 -38 -16 -79 -10 -67 9 13 21 11 36 -4 30 -11 -4 -11 -8 -3 -13 8 -5
8 -10 2 -14 -5 -3 -12 1 -16 9 -6 16 27 39 57 40 10 0 21 5 25 10 4 6 17 15
29 22 17 10 23 10 26 0 3 -7 4 2 4 18 -1 17 -4 32 -7 35 -3 3 -13 24 -22 47
-15 38 -15 41 1 37 14 -5 14 -4 -1 5 -9 6 -29 37 -45 69 -15 31 -35 66 -45 76
-10 11 -18 24 -18 29 0 4 -7 15 -15 24 -8 8 -13 19 -9 24 3 5 0 8 -7 7 -7 -2
-18 8 -26 22 -7 14 -13 22 -13 17 0 -4 -17 10 -37 30 -21 21 -53 49 -70 62
-18 13 -30 28 -26 34 4 6 1 7 -7 2 -7 -4 -15 -4 -19 1 -3 5 -37 25 -76 44 -38
19 -72 37 -75 40 -3 3 -14 6 -25 8 -11 2 -27 6 -35 9 -20 9 -27 10 -46 12 -9
1 -12 6 -8 14 6 9 5 9 -8 0 -8 -7 -18 -10 -21 -7 -3 3 -23 8 -44 11 -21 3 -44
10 -52 17 -11 8 -13 8 -8 -1 9 -14 -94 -13 -105 2 -5 7 -8 6 -8 -1z m705 -778
c-14 -10 -15 -15 -5 -21 8 -5 11 -4 7 2 -11 17 23 24 44 9 15 -10 17 -15 7
-23 -7 -5 -23 -8 -35 -7 -12 0 -21 -2 -20 -7 1 -4 -19 -26 -45 -47 -25 -21
-65 -61 -89 -88 -23 -27 -49 -50 -58 -52 -14 -3 -14 -2 -1 7 8 6 11 11 6 11
-5 0 -1 9 9 20 10 11 15 20 10 20 -4 0 -2 7 5 15 7 8 16 12 21 9 8 -5 13 10
10 29 -1 5 14 26 33 47 l35 39 10 -27 c9 -26 9 -26 10 -3 1 19 4 21 15 12 11
-9 13 -6 10 18 -3 29 21 69 34 56 3 -3 -3 -11 -13 -19z m-36 -37 c-16 -10 -23
-4 -14 10 3 6 11 8 17 5 6 -4 5 -9 -3 -15z m-145 -221 c-3 -5 -10 -5 -16 -2
-7 5 -9 1 -5 -9 4 -11 2 -14 -9 -10 -10 4 -11 9 -4 18 11 13 42 16 34 3z m-30
-53 c-4 -8 -8 -15 -10 -15 -2 0 -4 7 -4 15 0 8 4 15 10 15 5 0 7 -7 4 -15z
m-1354 -98 c0 -6 -3 -7 -7 -4 -3 4 -12 2 -19 -4 -8 -7 -14 -7 -19 1 -3 6 -11
7 -17 4 -6 -4 -9 -3 -5 2 7 13 67 14 67 1z m1033 -417 c3 -11 2 -22 -2 -24 -4
-3 -8 6 -9 20 -2 29 4 31 11 4z m2132 -349 c-3 -6 -11 -8 -17 -5 -6 4 -5 9 3
15 16 10 23 4 14 -10z m-245 -99 c0 -4 -9 -13 -19 -19 -15 -10 -20 -9 -25 2
-3 9 0 12 8 9 8 -3 17 -1 21 5 7 13 15 14 15 3z m-1669 -85 c-1 -12 -15 -9
-19 4 -3 6 1 10 8 8 6 -3 11 -8 11 -12z m-91 -8 c0 -15 -18 -19 -23 -6 -3 8 1
14 9 14 8 0 14 -4 14 -8z m380 -1 c0 -4 -4 -8 -9 -8 -6 0 -12 4 -15 8 -3 5 1
9 9 9 8 0 15 -4 15 -9z m180 -14 c0 -8 -19 -13 -24 -6 -3 5 1 9 9 9 8 0 15 -2
15 -3z m586 -3 c11 9 14 9 14 0 0 -7 5 -9 13 -5 6 4 9 3 4 -1 -9 -10 -67 -14
-67 -5 0 13 15 21 18 10 3 -8 8 -8 18 1z m94 5 c0 -3 -4 -8 -10 -11 -5 -3 -10
-1 -10 4 0 6 5 11 10 11 6 0 10 -2 10 -4z m-1539 -43 c-8 -15 -10 -15 -11 -2
0 17 10 32 18 25 2 -3 -1 -13 -7 -23z m-24 -9 c-9 -9 -28 6 -21 18 4 6 10 6
17 -1 6 -6 8 -13 4 -17z m-337 -114 c0 -5 -4 -10 -10 -10 -5 0 -10 5 -10 10 0
6 5 10 10 10 6 0 10 -4 10 -10z m-1075 -40 c3 -5 13 -6 23 -3 9 3 14 3 10 -2
-4 -4 -20 -9 -37 -10 -21 -2 -28 1 -24 11 6 16 19 18 28 4z"/>
<path d="M3141 2907 c-12 -13 -24 -34 -26 -47 -4 -23 -4 -23 25 5 16 15 28 36
27 46 -2 23 1 24 -26 -4z m0 -30 c-13 -12 -20 -15 -15 -7 12 22 28 39 33 34 3
-3 -6 -15 -18 -27z"/>
<path d="M3074 2818 c-3 -4 -2 -8 2 -8 4 0 -1 -10 -12 -22 -10 -13 -4 -10 14
6 17 17 32 30 32 31 0 6 -32 0 -36 -7z"/>
<path d="M3395 3181 c-3 -5 -2 -12 3 -15 5 -3 9 1 9 9 0 17 -3 19 -12 6z"/>
<path d="M3365 3057 c-15 -12 -16 -15 -4 -22 8 -5 11 -5 7 0 -4 4 0 14 10 21
23 18 11 18 -13 1z"/>
<path d="M3395 3040 c3 -5 8 -10 11 -10 2 0 4 5 4 10 0 6 -5 10 -11 10 -5 0
-7 -4 -4 -10z"/>
<path d="M3309 3022 c5 -10 10 -21 11 -27 1 -5 3 -12 5 -14 2 -2 2 9 -1 24 -4
25 -3 27 11 15 10 -8 15 -9 15 -1 0 6 -3 11 -7 12 -5 0 -16 2 -25 4 -14 2 -16
-1 -9 -13z"/>
<path d="M1190 2561 c0 -13 12 -20 26 -14 20 8 17 19 -6 20 -11 1 -20 -2 -20
-6z"/>
<path d="M1276 2557 c-16 -12 -16 -13 2 -13 10 0 19 6 19 13 0 7 -1 13 -2 13
-1 0 -9 -6 -19 -13z"/>
<path d="M1690 2559 c0 -10 40 -22 47 -15 4 3 -2 6 -13 6 -16 0 -16 2 -4 10
12 7 10 9 -8 7 -12 0 -22 -4 -22 -8z"/>
<path d="M1747 2559 c7 -9 9 -20 5 -25 -4 -4 0 -3 9 4 22 16 41 12 56 -13 7
-11 12 -15 13 -9 0 5 -7 19 -15 30 -8 10 -15 15 -15 10 0 -5 -7 -3 -15 4 -12
10 -15 10 -15 0 0 -9 -4 -9 -17 1 -16 12 -17 12 -6 -2z"/>
<path d="M1557 2549 c7 -7 15 -10 18 -7 3 3 -2 9 -12 12 -14 6 -15 5 -6 -5z"/>
<path d="M1055 2539 c-6 -8 -4 -10 5 -4 10 6 12 4 6 -11 -6 -15 -5 -17 5 -6 9
9 10 15 2 23 -8 8 -13 7 -18 -2z"/>
<path d="M1480 2540 c-9 -6 -10 -10 -3 -10 6 0 15 5 18 10 8 12 4 12 -15 0z"/>
<path d="M1593 2534 c0 -9 4 -11 12 -4 7 5 14 9 16 7 2 -1 3 0 1 2 -7 11 -29
7 -29 -5z"/>
<path d="M4115 2540 c3 -5 8 -10 11 -10 2 0 4 5 4 10 0 6 -5 10 -11 10 -5 0
-7 -4 -4 -10z"/>
<path d="M934 2516 c1 -9 6 -19 11 -23 4 -4 5 -2 0 6 -6 11 -2 13 19 9 31 -6
23 6 -11 16 -16 5 -21 3 -19 -8z"/>
<path d="M1135 2520 c3 -5 8 -10 11 -10 2 0 4 5 4 10 0 6 -5 10 -11 10 -5 0
-7 -4 -4 -10z"/>
<path d="M1971 2514 c0 -11 3 -14 6 -6 3 7 2 16 -1 19 -3 4 -6 -2 -5 -13z"/>
<path d="M1429 2503 c-13 -16 -12 -17 4 -4 9 7 17 15 17 17 0 8 -8 3 -21 -13z"/>
<path d="M2045 2498 c-5 -7 -5 -10 0 -6 4 4 14 3 22 -4 10 -8 17 -8 24 -1 8 8
7 13 -2 18 -8 5 -10 4 -5 -3 9 -15 -6 -16 -21 -1 -8 8 -13 7 -18 -3z"/>
<path d="M2164 2468 c-4 -5 -3 -12 0 -15 3 -4 6 0 6 8 0 11 2 12 9 1 7 -11 9
-11 14 0 6 16 -20 21 -29 6z"/>
<path d="M2030 2456 c0 -2 8 -10 18 -17 15 -13 16 -12 3 4 -13 16 -21 21 -21
13z"/>
<path d="M2265 2441 c14 -14 67 -23 59 -10 -3 6 -8 8 -11 5 -3 -2 -17 0 -32 5
-17 7 -23 7 -16 0z"/>
<path d="M2230 2426 c0 -2 9 -6 20 -9 11 -3 18 -1 14 4 -5 9 -34 13 -34 5z"/>
<path d="M2420 2365 c-7 -9 -11 -17 -9 -20 3 -2 10 5 17 15 14 24 10 26 -8 5z"/>
<path d="M2440 2330 c6 -11 13 -20 16 -20 2 0 0 9 -6 20 -6 11 -13 20 -16 20
-2 0 0 -9 6 -20z"/>
<path d="M2495 2320 c-3 -5 -1 -10 4 -10 6 0 11 5 11 10 0 6 -2 10 -4 10 -3 0
-8 -4 -11 -10z"/>
<path d="M2467 2307 c-3 -8 1 -14 8 -14 7 0 11 6 8 14 -3 7 -6 13 -8 13 -2 0
-5 -6 -8 -13z"/>
<path d="M2526 2307 c3 -10 9 -15 12 -12 3 3 0 11 -7 18 -10 9 -11 8 -5 -6z"/>
<path d="M2550 2291 c0 -5 7 -12 16 -15 14 -5 15 -4 4 9 -14 17 -20 19 -20 6z"/>
<path d="M2626 2217 c3 -10 9 -15 12 -12 3 3 0 11 -7 18 -10 9 -11 8 -5 -6z"/>
<path d="M4925 1900 c-3 -5 -1 -10 4 -10 6 0 11 5 11 10 0 6 -2 10 -4 10 -3 0
-8 -4 -11 -10z"/>
<path d="M4892 1858 c-7 -7 -12 -16 -12 -21 0 -5 7 -1 16 8 9 9 14 18 12 20
-2 3 -10 -1 -16 -7z"/>
<path d="M4693 1741 c-27 -22 -28 -28 -8 -28 8 0 13 3 10 5 -3 3 2 14 12 24
21 23 14 23 -14 -1z"/>
<path d="M210 1740 c0 -5 5 -10 11 -10 5 0 7 5 4 10 -3 6 -8 10 -11 10 -2 0
-4 -4 -4 -10z"/>
<path d="M4435 1657 c-9 -4 -13 -12 -10 -18 9 -14 25 -11 25 5 0 9 9 13 25 12
13 -2 22 0 20 5 -7 10 -40 8 -60 -4z"/>
<path d="M4397 1653 c-4 -3 -7 -11 -7 -17 0 -6 5 -5 12 2 6 6 9 14 7 17 -3 3
-9 2 -12 -2z"/>
<path d="M4316 1612 l-17 -27 20 23 c13 15 21 18 24 10 4 -9 6 -10 6 -1 2 24
-17 22 -33 -5z"/>
<path d="M340 1619 c0 -5 5 -7 10 -4 6 3 10 8 10 11 0 2 -4 4 -10 4 -5 0 -10
-5 -10 -11z"/>
<path d="M370 1621 c0 -5 7 -15 17 -22 15 -13 15 -12 4 9 -12 23 -21 28 -21
13z"/>
<path d="M3065 1620 c-3 -5 3 -7 12 -6 10 2 22 -2 26 -8 6 -7 7 -6 5 3 -5 16
-35 24 -43 11z"/>
<path d="M4139 1598 c-12 -22 -11 -28 1 -28 6 0 9 3 9 8 -1 4 -1 14 0 22 1 13
2 13 11 0 7 -11 10 -11 10 -2 0 7 5 10 10 7 6 -3 10 -2 10 4 0 16 -41 8 -51
-11z"/>
<path d="M4203 1603 c0 -9 4 -10 14 -2 7 6 13 12 13 14 0 1 -6 2 -13 2 -8 0
-14 -6 -14 -14z"/>
<path d="M4240 1605 c-7 -9 -10 -18 -6 -22 3 -3 6 -1 6 6 0 7 4 10 8 7 5 -3 9
1 9 9 0 19 -2 19 -17 0z"/>
<path d="M2756 1594 c-8 -20 -8 -24 2 -24 4 0 8 9 9 20 2 24 -3 26 -11 4z"/>
<path d="M3140 1602 c0 -5 7 -9 15 -9 8 0 12 4 9 9 -3 4 -9 8 -15 8 -5 0 -9
-4 -9 -8z"/>
<path d="M3235 1600 c-3 -5 -1 -10 4 -10 6 0 11 5 11 10 0 6 -2 10 -4 10 -3 0
-8 -4 -11 -10z"/>
<path d="M2576 1588 c3 -5 9 -6 14 -3 4 3 11 -1 13 -7 4 -10 6 -10 6 0 1 7 5
11 10 7 5 -3 12 -2 15 3 2 4 -11 8 -29 8 -18 0 -31 -4 -29 -8z"/>
<path d="M3310 1589 c0 -4 6 -9 13 -12 8 -3 14 0 14 7 0 7 -6 13 -14 13 -7 0
-13 -4 -13 -8z"/>
<path d="M3813 1578 c-23 -11 -30 -32 -14 -42 5 -3 8 2 7 12 0 10 6 16 16 16
10 -1 16 2 13 6 -3 5 1 11 7 13 7 3 9 5 3 6 -5 0 -20 -5 -32 -11z"/>
<path d="M3856 1574 c-3 -8 -1 -12 4 -9 5 3 19 1 30 -5 28 -15 25 -6 -4 13
-21 14 -25 15 -30 1z"/>
<path d="M4174 1578 c-4 -7 -4 -10 1 -6 4 4 15 2 24 -5 14 -11 14 -10 2 6 -16
20 -18 21 -27 5z"/>
<path d="M396 1567 c3 -10 9 -15 12 -12 3 3 0 11 -7 18 -10 9 -11 8 -5 -6z"/>
<path d="M3675 1571 c-3 -5 -2 -12 3 -15 5 -3 9 1 9 9 0 17 -3 19 -12 6z"/>
<path d="M4006 1565 c-11 -8 -15 -15 -9 -15 6 0 16 7 23 15 16 19 11 19 -14 0z"/>
<path d="M460 1561 c0 -6 4 -13 10 -16 6 -3 7 1 4 9 -7 18 -14 21 -14 7z"/>
<path d="M2620 1566 c0 -2 9 -6 20 -9 11 -3 18 -1 14 4 -5 9 -34 13 -34 5z"/>
<path d="M3295 1560 c3 -5 8 -10 11 -10 2 0 4 5 4 10 0 6 -5 10 -11 10 -5 0
-7 -4 -4 -10z"/>
<path d="M570 1523 c0 -7 -7 -13 -17 -13 -28 0 -7 -11 29 -15 18 -2 37 -4 41
-4 5 -1 5 -6 1 -13 -5 -7 -3 -8 5 -3 15 9 2 25 -23 29 -10 1 -22 9 -27 17 -6
10 -9 10 -9 2z"/>
<path d="M2480 1526 c0 -2 7 -7 16 -10 8 -3 12 -2 9 4 -6 10 -25 14 -25 6z"/>
<path d="M2395 1510 c-3 -5 -1 -10 4 -10 6 0 11 5 11 10 0 6 -2 10 -4 10 -3 0
-8 -4 -11 -10z"/>
<path d="M646 1473 c-6 -14 -5 -15 5 -6 7 7 10 15 7 18 -3 3 -9 -2 -12 -12z"/>
<path d="M683 1478 c9 -7 22 -21 30 -31 12 -18 13 -17 13 2 0 11 -3 18 -7 15
-4 -2 -12 3 -19 11 -7 8 -17 15 -23 15 -6 0 -3 -6 6 -12z"/>
<path d="M2300 1481 c0 -6 4 -13 10 -16 6 -3 7 1 4 9 -7 18 -14 21 -14 7z"/>
<path d="M2370 1481 c0 -9 38 -12 44 -3 2 4 -7 8 -20 8 -13 1 -24 -1 -24 -5z"/>
<path d="M673 1455 c0 -8 4 -12 9 -9 5 3 6 10 3 15 -9 13 -12 11 -12 -6z"/>
<path d="M2256 1461 c-3 -4 -1 -13 3 -20 6 -10 10 -9 15 4 3 10 11 13 18 9 7
-4 9 -3 5 1 -10 12 -36 15 -41 6z"/>
<path d="M785 1441 c3 -2 0 -9 -5 -16 -7 -8 -5 -12 5 -12 8 0 13 3 10 5 -3 3
2 10 11 16 13 10 13 12 -5 12 -11 0 -18 -2 -16 -5z"/>
<path d="M2316 1438 c3 -5 10 -6 15 -3 13 9 11 12 -6 12 -8 0 -12 -4 -9 -9z"/>
<path d="M864 1410 c0 -13 4 -16 10 -10 7 7 7 13 0 20 -6 6 -10 3 -10 -10z"/>
<path d="M2069 1411 c-22 -18 -22 -19 -4 -17 11 2 27 -2 35 -8 13 -9 13 -9 2
6 -8 9 -11 22 -7 28 10 15 0 12 -26 -9z"/>
<path d="M976 1395 c-9 -26 -7 -32 5 -12 6 10 9 21 6 23 -2 3 -7 -2 -11 -11z"/>
<path d="M998 1389 c-4 -11 1 -15 17 -15 13 0 21 4 19 8 -3 4 0 8 7 8 7 0 9 3
6 6 -4 4 -13 2 -21 -5 -11 -9 -15 -9 -18 1 -3 8 -6 8 -10 -3z"/>
<path d="M1796 1381 c-4 -5 -17 -8 -31 -7 -13 2 -22 -1 -19 -6 3 -5 12 -7 20
-4 7 3 16 1 19 -4 9 -14 22 -12 28 5 7 16 -9 30 -17 16z"/>
<path d="M1830 1365 c-11 -13 -10 -14 4 -9 9 3 16 10 16 15 0 13 -6 11 -20 -6z"/>
<path d="M1369 1358 c14 -19 32 -15 30 5 0 8 -2 8 -6 -1 -4 -10 -8 -10 -21 0
-15 12 -16 11 -3 -4z"/>
<path d="M1413 1354 c0 -8 4 -14 9 -14 4 0 8 5 8 11 0 5 6 7 13 3 6 -4 8 -3 4
1 -13 15 -34 14 -34 -1z"/>
<path d="M1640 1360 c0 -5 5 -10 11 -10 5 0 7 5 4 10 -3 6 -8 10 -11 10 -2 0
-4 -4 -4 -10z"/>
<path d="M1676 1361 c-3 -5 1 -12 10 -15 22 -8 25 -4 9 11 -8 7 -16 9 -19 4z"/>
<path d="M1910 1359 c0 -5 5 -7 10 -4 6 3 10 8 10 11 0 2 -4 4 -10 4 -5 0 -10
-5 -10 -11z"/>
<path d="M2000 1360 c-9 -6 -10 -10 -3 -10 6 0 15 5 18 10 8 12 4 12 -15 0z"/>
<path d="M1260 1346 c0 -2 11 -6 25 -8 13 -3 22 -1 19 3 -5 9 -44 13 -44 5z"/>
<path d="M1759 1333 c-13 -16 -12 -17 4 -4 9 7 17 15 17 17 0 8 -8 3 -21 -13z"/>
<path d="M1450 1336 c0 -2 8 -10 18 -17 15 -13 16 -12 3 4 -13 16 -21 21 -21
13z"/>
<path d="M1366 1318 c3 -5 10 -6 15 -3 13 9 11 12 -6 12 -8 0 -12 -4 -9 -9z"/>
</g>
</svg>
